<svg xmlns="http://www.w3.org/2000/svg" viewBox="0 0 132.29 132.29">
  <defs>
    <linearGradient id="a" x1="63.75" x2="64.31" y1=".38" y2="133.99" gradientUnits="userSpaceOnUse">
      <stop offset="0" stop-color="#EA3636"/>
      <stop offset="1" stop-color="#F37440"/>
    </linearGradient>
  </defs>
  <path fill="url(#a)" stroke="#fff" stroke-dasharray=".26 .79" stroke-dashoffset="1.69" stroke-miterlimit="10" stroke-opacity=".59" stroke-width=".26" d="M0 0h132.29v132.29H0z"/>
  <g fill="#fff" stroke-width=".35" aria-label="Flarum Extension API">
    <path d="M38.81 24.68v2.93h-6.5v3.88h5.95v2.9H32.3v6.18h-3.83V24.68zM41 40.57V22.54h3.69v18.03zM47.96 29.52q1.03-.6 2.32-.95 1.3-.38 2.67-.38 2.25 0 3.6 1.08 1.37 1.09 1.37 3.46v7.84h-2.85l-.33-1.2h-.1q-.5.65-1.41 1.08-.88.4-2.1.4-1.03 0-1.81-.3-.76-.3-1.26-.8t-.79-1.2q-.25-.7-.25-1.48 0-1.06.46-1.82.48-.76 1.26-1.24.8-.48 1.86-.7 1.09-.23 2.3-.23h1.26v-.66q0-.68-.48-1.03-.48-.38-1.36-.38-.76 0-1.49.23t-1.61.73zm6.23 5.83l-.84.03q-.7.02-1.18.15-.48.12-.78.33-.28.17-.4.45-.13.25-.13.53 0 .78.45 1.08.48.28 1.09.28t1.08-.35q.5-.35.7-.78zM60.64 40.57v-12.1h2.92l.38 2.11q.23-.45.56-.88.33-.45.78-.78t1.03-.53q.6-.2 1.34-.2.56 0 1.01.15.48.12.76.3l-.6 2.9q-.29-.15-.71-.28-.43-.12-1.06-.12-1.16 0-1.95.75-.75.76-.75 2.63v6.05zM78.33 28.46h3.74v12.11h-2.75l-.38-1.3h-.1q-.25.24-.6.52t-.86.53q-.48.23-1.11.38-.64.15-1.44.15-1.97 0-3.08-1.08-1.11-1.09-1.11-3.2v-8.1h3.73v7.79q0 .93.46 1.39.48.43 1.2.43.9 0 1.45-.36.58-.38.85-.78zM88.71 40.57h-3.73v-12.1h2.9l.43 1.5q.8-.82 1.76-1.3.96-.48 2.15-.48 2.6 0 3.55 1.84.81-.83 1.82-1.34 1.04-.5 2.2-.5 1.94 0 3 1.06 1.06 1.03 1.06 3.05v8.27h-3.74v-7.9q0-.75-.4-1.2-.4-.46-1.08-.46-.61 0-1.27.3-.65.3-1.08.89v8.37h-3.73v-7.9q0-.75-.4-1.2-.41-.46-1.1-.46-.6 0-1.25.35-.66.36-1.09.94zM12.04 56.21h10.6v2.93h-6.77v3.25h6.1v2.9h-6.1v3.89h6.84v2.93H12.04zM32.58 65.9l4.3 6.2h-4.3l-1-1.5-1.34-2.4L29 70.57l-.96 1.54H23.8l4.24-6.2L24.06 60h4.16l1 1.56 1.2 2.3 1.1-2.3.94-1.56h4.08zM46.03 62.67h-3.1v5.12q0 .84.35 1.16.38.33 1.04.33.5 0 1-.1.51-.1.79-.28l.55 2.55q-.43.23-1.3.45-.87.2-1.85.2-2.35 0-3.33-.9-.96-.91-.96-2.75v-5.78h-1.9V60h1.9V56.3h3.7V60h3.11zM59.27 67.14h-7.82v.1q0 1.26.98 1.84t2.47.58q1.04 0 1.82-.2t1.31-.48l.68 2.57q-.68.33-1.74.58-1.03.25-2.55.25-1.36 0-2.6-.35-1.2-.38-2.14-1.13-.9-.76-1.46-1.92-.53-1.16-.53-2.78 0-1.43.43-2.62.45-1.21 1.26-2.07.8-.86 1.92-1.31 1.13-.48 2.5-.48 2.5 0 3.98 1.51 1.49 1.52 1.49 4.32zm-3.81-2.55q0-.43-.1-.83t-.33-.71q-.2-.33-.56-.5-.32-.2-.8-.2-.89 0-1.47.62-.58.61-.68 1.67zM65.28 72.1h-3.73V60h2.9l.43 1.51q.8-.83 1.82-1.31 1-.48 2.19-.48 2.04 0 3.13 1.1t1.08 3.26v8.03h-3.73v-7.65q0-.88-.43-1.39-.4-.53-1.21-.53-.6 0-1.29.36-.65.35-1.16.93zM83.5 63.1q-.68-.33-1.44-.5-.75-.2-1.46-.2-.65 0-1.06.22-.4.23-.4.63 0 .43.38.73.4.28 1.56.6l.76.24q1.51.45 2.3 1.33.77.86.77 2.22 0 .91-.37 1.67-.38.73-1.09 1.26-.68.53-1.66.8-.96.28-2.15.28-1.28 0-2.3-.22-.98-.23-1.83-.66l.8-2.7q.73.38 1.52.63.8.23 1.64.23.95 0 1.33-.28.4-.28.4-.65 0-.23-.1-.38-.07-.18-.3-.33-.22-.15-.65-.28-.4-.15-1.06-.35l-.78-.23q-1.5-.48-2.17-1.31-.69-.86-.69-2.3 0-.83.33-1.5.33-.72.94-1.22.63-.53 1.51-.8.9-.31 2.07-.31 1.16 0 2.14.23 1.01.2 1.82.58zM87.5 72.1V60h3.73v12.1zm1.86-14.47q-.95 0-1.46-.53-.5-.56-.5-1.32t.5-1.28q.53-.56 1.46-.56t1.44.53q.53.53.53 1.31t-.5 1.32q-.5.53-1.47.53zM106.4 65.98q0 1.48-.5 2.67-.48 1.19-1.34 2.02-.86.83-2.02 1.28-1.16.43-2.5.43-1.33 0-2.5-.4-1.13-.43-1.96-1.21-.83-.78-1.31-1.92-.48-1.16-.48-2.62 0-1.54.48-2.75.5-1.21 1.36-2.04.86-.84 2.02-1.27 1.16-.45 2.5-.45 1.33 0 2.47.4 1.16.4 1.99 1.21.83.79 1.31 1.95.48 1.16.48 2.7zm-3.83.12q0-.98-.2-1.66-.2-.7-.56-1.14-.35-.45-.8-.65-.46-.2-.94-.2-.48 0-.94.17-.42.18-.78.6-.33.44-.53 1.14-.2.68-.2 1.74 0 1.84.76 2.7t1.74.86q.48 0 .9-.18.46-.2.79-.6.35-.43.55-1.11.2-.68.2-1.67zM112.43 72.1h-3.73V60h2.9l.43 1.51q.8-.83 1.81-1.31 1.01-.48 2.2-.48 2.04 0 3.13 1.1t1.08 3.26v8.03h-3.73v-7.65q0-.88-.43-1.39-.4-.53-1.21-.53-.6 0-1.29.36-.66.35-1.16.93zM40.6 109.76l5.42-21.48h4.74l5.45 21.48h-3.77l-1.18-5.2h-5.7l-1.19 5.2zm5.63-8.21h4.35l-1.3-5.77-.55-2.59q-.24-1.18-.32-1.7l-.33 1.7q-.23 1.15-.56 2.56zM59.49 109.76V88.28h7.15q2.15 0 3.74.82 1.62.82 2.5 2.32.88 1.48.88 3.48t-.88 3.5q-.88 1.47-2.5 2.3-1.59.82-3.74.82h-3.47v8.24zm3.68-11.57h3.47q1.56 0 2.47-.88.92-.91.92-2.41t-.92-2.39q-.9-.9-2.47-.9h-3.47zM77.52 109.76v-3.24h4.33v-15h-4.33v-3.24h12.36v3.23h-4.33v15.01h4.33v3.24z"/>
  </g>
</svg>