<svg xmlns="http://www.w3.org/2000/svg" xmlns:xlink="http://www.w3.org/1999/xlink" width="740" height="740" viewBox="0 0 300 300">
  <defs>
    <linearGradient id="b" x1="150" x2="150" y2="300" gradientUnits="userSpaceOnUse">
      <stop offset="0" stop-color="#EA3636" />
      <stop offset="1" stop-color="#F37440" />
    </linearGradient>
    <pattern id="d" width="512" height="512" x="-512" y="-512" patternUnits="userSpaceOnUse">
      <use xlink:href="#a" />
    </pattern>
    <path id="c" d="M0 0h300v300H0z" />
  </defs>
  <g fill-rule="evenodd">
    <use width="100%" height="100%" fill="url(#b)" xlink:href="#c" />
    <use width="100%" height="100%" fill="url(#d)" fill-opacity="0" xlink:href="#c" />
    <path fill="#dcdcdc" d="M160.2 178v55.2l-68.4-44.8-2.8-1.8-6-4c-1-.6-1.8-1.5-2.5-2.6z" />
    <path fill="#fff" d="M82.4 66a3.4 3.4 0 00-3.4 3.5V175a9 9 0 004 7.6l6 3.9 2.8 1.8s-11.4-8.4 2.4-8.4h127V66z" />
  </g>
  <g stroke-width="1.8" aria-label="API">
    <path
      d="M113.8 100.1h11.5l16 44.5H130l-3-9.5h-15l-3 9.5H97.7zm.5 27.2h10.1l-1.7-5.3-1.7-5.6-1.5-5.5h-.2l-1.6 5.4-1.8 5.7zM147.3 100.1h16q4 0 7.3 1 3.3.9 5.5 2.6 2.4 1.8 3.6 4.4 1.3 2.4 1.3 5.7 0 3.9-1.5 6.7-1.5 2.8-4 4.7-2.5 1.9-6 2.8-3.2.8-7 .8H158v15.8h-10.7zm10.7 20.6h3.9q1.5 0 3-.4 1.5-.3 2.6-1 1-.8 1.7-2t.7-3q0-3-2-4.6-2.1-1.5-5.6-1.5H158zM198.4 100.1v44.5h-10.7v-44.5z" />
  </g>
</svg>